<svg width="70" height="70" viewBox="0 0 70 70" fill="none" xmlns="http://www.w3.org/2000/svg">
<path d="M52.5 37.9166V32.0833H64.1667V37.9166H52.5ZM56 58.3333L46.6667 51.3333L50.1667 46.6666L59.5 53.6666L56 58.3333ZM50.1667 23.3333L46.6667 18.6666L56 11.6666L59.5 16.3333L50.1667 23.3333ZM14.5833 55.4166V43.75H11.6667C10.0625 43.75 8.68873 43.1783 7.5454 42.035C6.40207 40.8916 5.83137 39.5188 5.83332 37.9166V32.0833C5.83332 30.4791 6.40498 29.1054 7.54832 27.962C8.69165 26.8187 10.0644 26.248 11.6667 26.25H23.3333L37.9167 17.5V52.5L23.3333 43.75H20.4167V55.4166H14.5833ZM40.8333 44.7708V25.2291C42.1458 26.3958 43.2036 27.8182 44.0067 29.4962C44.8097 31.1743 45.2103 33.0088 45.2083 35C45.2083 36.993 44.8068 38.8286 44.0037 40.5066C43.2007 42.1847 42.1439 43.6061 40.8333 44.7708Z" fill="#149630"/>
</svg>
