<svg width="599" height="438" viewBox="0 0 599 438" fill="none" xmlns="http://www.w3.org/2000/svg">
<path d="M532.422 329.239H316.07C314.21 329.236 312.427 328.496 311.112 327.181C309.797 325.866 309.057 324.083 309.054 322.223V7.01581C309.06 5.15815 309.802 3.37857 311.116 2.06612C312.431 0.753676 314.212 0.0151473 316.07 0.0119934H532.422C534.279 0.0151473 536.06 0.753676 537.375 2.06612C538.69 3.37857 539.431 5.15815 539.438 7.01581V322.223C539.434 324.083 538.694 325.866 537.379 327.181C536.064 328.496 534.281 329.236 532.422 329.239ZM316.07 0.311302C315.185 0.30499 314.307 0.473657 313.487 0.807616C312.668 1.14157 311.922 1.63424 311.294 2.25728C310.665 2.88032 310.166 3.62146 309.825 4.43809C309.483 5.25472 309.307 6.13075 309.305 7.01581V322.223C309.305 324.005 310.013 325.713 311.273 326.973C312.532 328.232 314.24 328.94 316.022 328.94H532.422C534.203 328.94 535.911 328.232 537.171 326.973C538.431 325.713 539.138 324.005 539.138 322.223V7.01581C539.138 5.23449 538.431 3.52613 537.171 2.26654C535.911 1.00696 534.203 0.299327 532.422 0.299327L316.07 0.311302Z" fill="#F0F0F0"/>
<path d="M282.882 329.239H66.4824C64.6226 329.236 62.84 328.496 61.525 327.181C60.2099 325.866 59.4698 324.083 59.4666 322.223V7.01579C59.4698 5.15606 60.2099 3.37341 61.525 2.05838C62.84 0.743345 64.6226 0.00316551 66.4824 0H282.882C284.742 0.00316551 286.525 0.743345 287.84 2.05838C289.155 3.37341 289.895 5.15606 289.898 7.01579V322.223C289.895 324.083 289.155 325.866 287.84 327.181C286.525 328.496 284.742 329.236 282.882 329.239ZM66.4824 0.311283C64.7031 0.31128 62.9966 1.01727 61.7373 2.27426C60.4781 3.53126 59.7691 5.23654 59.7659 7.01579V322.223C59.7659 324.005 60.4735 325.713 61.7331 326.973C62.9927 328.232 64.7011 328.94 66.4824 328.94H282.882C284.664 328.94 286.372 328.232 287.632 326.973C288.891 325.713 289.599 324.005 289.599 322.223V7.01579C289.599 5.23447 288.891 3.52611 287.632 2.26652C286.372 1.00694 284.664 0.299308 282.882 0.299308L66.4824 0.311283Z" fill="#F0F0F0"/>
<path d="M598.617 402.354H0V402.654H598.617V402.354Z" fill="#F0F0F0"/>
<path d="M417.404 110.277L412.052 152.887L374.794 115.629L417.404 110.277Z" fill="#F5F5F5"/>
<path d="M331.694 206.571L407.047 131.217L396.045 120.202L331.694 184.566V206.571Z" fill="#F5F5F5"/>
<path d="M132.27 268.085C134.37 272.119 135.534 276.573 135.678 281.118C135.822 285.663 134.942 290.183 133.102 294.341C131.263 298.5 128.511 302.192 125.051 305.143C121.591 308.093 117.512 310.228 113.115 311.389C108.151 312.703 102.935 312.731 97.9577 311.472C97.2633 311.293 96.5569 311.089 95.8745 310.862C92.8354 309.852 89.9747 308.37 87.3981 306.468C86.8952 306.097 86.3924 305.702 85.9135 305.271C82.8637 302.715 80.3492 299.583 78.5146 296.052C78.347 295.717 78.1794 295.382 78.0237 295.034C75.9537 290.637 74.9708 285.807 75.158 280.95C75.3452 276.093 76.6969 271.353 79.0992 267.128C81.5016 262.903 84.8842 259.318 88.9621 256.673C93.04 254.029 97.6937 252.404 102.531 251.934C103.261 251.862 103.992 251.826 104.722 251.802C107.886 251.741 111.04 252.169 114.072 253.071C114.743 253.275 115.401 253.49 116.048 253.73C118.37 254.605 120.577 255.759 122.621 257.166C126.382 259.754 129.506 263.165 131.756 267.139C131.923 267.426 132.103 267.749 132.27 268.085Z" fill="#F5F5F5"/>
<path d="M127.374 271.892C127.062 271.365 126.739 270.85 126.392 270.347C124.867 268.126 122.982 266.175 120.813 264.577C118.639 262.982 116.21 261.767 113.629 260.985C112.973 260.771 112.305 260.591 111.63 260.446C108.482 259.743 105.226 259.678 102.052 260.255C101.245 260.397 100.446 260.581 99.6577 260.805C96.295 261.775 93.182 263.462 90.5324 265.748C87.8829 268.035 85.7596 270.868 84.3082 274.053C82.8569 277.237 82.112 280.698 82.1245 284.198C82.1371 287.698 82.9069 291.154 84.381 294.328L83.8423 293.346C82.3683 290.519 81.4657 287.428 81.1861 284.252C80.9064 281.075 81.2551 277.875 82.2123 274.833C83.1695 271.791 84.7165 268.968 86.7648 266.524C88.8132 264.08 91.3228 262.064 94.1505 260.59C96.9781 259.116 100.068 258.213 103.245 257.934C106.421 257.654 109.622 258.003 112.664 258.96C115.705 259.917 118.529 261.464 120.972 263.512C123.416 265.561 125.433 268.07 126.907 270.898C127.05 271.221 127.206 271.604 127.374 271.892Z" fill="#E0E0E0"/>
<g opacity="0.3">
<path d="M116.563 303.571C116.311 303.702 116.06 303.834 115.796 303.954C115.533 304.085 115.282 304.205 115.006 304.313L114.815 304.397C114.515 304.528 114.228 304.636 113.941 304.744H113.821C112.879 305.097 111.915 305.389 110.936 305.618C110.612 305.69 110.277 305.773 109.954 305.821C109.295 305.953 108.637 306.049 107.967 306.121L107.32 306.181H106.973H106.458C106.195 306.181 105.931 306.181 105.656 306.181C105.381 306.181 104.973 306.181 104.626 306.181C104.279 306.181 103.944 306.181 103.609 306.121C103.273 306.061 103.046 306.121 102.771 306.049L102.22 305.977L101.777 305.917L101.274 305.833L100.448 305.678L99.7415 305.51H99.5859L98.5802 305.247L97.6464 304.947L97.0956 304.744L96.5449 304.54L96.0181 304.325L95.4554 304.073L94.9167 303.822L94.3899 303.559C94.0307 303.379 93.6716 303.187 93.3124 302.972L92.8814 302.721C92.5222 302.505 92.187 302.29 91.8398 302.05L91.3609 301.715C90.8461 301.356 90.3432 300.961 89.8644 300.518L89.4812 300.182C89.1939 299.931 88.9185 299.692 88.6552 299.428C88.3798 299.165 88.1164 298.889 87.853 298.614L87.4938 298.231L87.3262 298.039L86.9551 297.62V297.548C86.8133 297.393 86.6814 297.229 86.56 297.058C86.4061 296.882 86.2622 296.698 86.129 296.507C85.9853 296.327 85.8536 296.136 85.7219 295.944C85.5902 295.753 85.5064 295.645 85.4106 295.489L85.2071 295.19L84.9437 294.771L84.5846 294.172C83.1104 290.998 82.3406 287.542 82.328 284.043C82.3155 280.543 83.0604 277.082 84.5118 273.897C85.9631 270.712 88.0864 267.879 90.736 265.593C93.3855 263.306 96.4985 261.62 99.8613 260.65C100.649 260.425 101.449 260.241 102.256 260.099C105.429 259.523 108.686 259.588 111.834 260.291C112.509 260.435 113.176 260.615 113.833 260.829C116.413 261.611 118.842 262.826 121.016 264.421C123.185 266.02 125.071 267.97 126.595 270.192C126.943 270.695 127.266 271.209 127.577 271.736C130.219 277.436 130.547 283.939 128.493 289.876C126.439 295.813 122.162 300.722 116.563 303.571Z" fill="black"/>
</g>
<path d="M116.563 303.571C116.311 303.702 116.06 303.834 115.796 303.954C115.533 304.085 115.282 304.205 115.006 304.313L114.815 304.397C114.515 304.528 114.228 304.636 113.941 304.744H113.821C112.879 305.097 111.915 305.389 110.936 305.618C110.612 305.69 110.277 305.773 109.954 305.821C109.295 305.953 108.637 306.049 107.967 306.121H107.703H107.308H106.961H106.446C106.183 306.121 105.919 306.121 105.644 306.121C105.369 306.121 104.961 306.121 104.614 306.121C104.267 306.121 103.932 306.121 103.597 306.061C103.261 306.001 103.034 306.061 102.759 305.989L102.208 305.917L101.765 305.857L101.262 305.773L100.436 305.618L99.7296 305.45H99.5739L98.5682 305.187L97.6344 304.888L97.0837 304.684L96.5329 304.48L96.0062 304.265L95.4435 304.014L94.9047 303.762L94.3779 303.499C94.0188 303.319 93.6596 303.128 93.3004 302.912L92.8694 302.661C92.5102 302.445 92.175 302.23 91.8278 301.99L91.3489 301.655C90.8341 301.296 90.3313 300.901 89.8524 300.458L89.4693 300.123C89.1819 299.871 88.9066 299.632 88.6432 299.368C88.3678 299.105 88.1044 298.83 87.841 298.554L87.4819 298.171L87.3142 297.979L86.9431 297.56V297.489C86.8013 297.333 86.6694 297.169 86.548 296.998C86.3941 296.822 86.2502 296.639 86.117 296.447C85.9733 296.267 85.8416 296.076 85.7099 295.884C85.5783 295.693 85.4945 295.585 85.3987 295.429L85.1951 295.13L84.9318 294.711L84.5726 294.112C83.0984 290.938 82.3286 287.483 82.3161 283.983C82.3035 280.483 83.0485 277.022 84.4998 273.837C85.9511 270.652 88.0744 267.819 90.724 265.533C93.3735 263.246 96.4865 261.56 99.8493 260.59C100.637 260.365 101.437 260.181 102.244 260.039C105.417 259.463 108.674 259.528 111.822 260.231C112.497 260.375 113.164 260.555 113.821 260.769C116.401 261.552 118.83 262.766 121.004 264.361C123.173 265.96 125.059 267.91 126.584 270.132C126.931 270.635 127.254 271.149 127.565 271.676C130.226 277.381 130.566 283.897 128.513 289.848C126.46 295.799 122.175 300.72 116.563 303.571Z" fill="#F0F0F0"/>
<path d="M114.719 292.724L116.575 296.315L112.037 298.71L110.265 295.298C107.32 296.697 104.091 297.398 100.831 297.345L100.388 290.545C103.354 290.665 106.302 290.022 108.948 288.677C111.103 287.552 111.63 286.702 111.235 285.935C109.762 283.098 98.4964 291.862 94.1265 283.469C92.2349 279.877 93.2884 275.4 98.1732 271.916L96.3534 268.408L100.891 266.013L102.675 269.461C105.04 268.473 107.582 267.98 110.145 268.013L110.72 274.693C108.234 274.651 105.772 275.196 103.537 276.286C101.31 277.483 100.939 278.453 101.346 279.231C102.747 281.937 114.025 273.245 118.347 281.494C120.19 284.93 119.256 289.252 114.719 292.724Z" fill="#E0E0E0"/>
<path d="M113.965 291.598L115.82 295.19L111.295 297.584L109.511 294.184C106.562 295.571 103.336 296.271 100.077 296.232L99.6458 289.431C102.586 289.55 105.509 288.929 108.146 287.623C110.301 286.498 110.84 285.648 110.433 284.87C108.948 281.984 97.7062 290.76 93.3842 282.38C91.4926 278.788 92.5342 274.322 97.4309 270.838L95.5991 267.33L100.137 264.936L101.932 268.372C104.285 267.359 106.818 266.829 109.379 266.816L109.966 273.508C107.479 273.46 105.016 274.006 102.783 275.1C100.568 276.298 100.185 277.267 100.592 278.034C101.992 280.739 113.27 272.047 117.592 280.308C119.436 283.804 118.526 288.138 113.965 291.598Z" fill="#F5F5F5"/>
<path d="M499.869 171.528C498.307 177.162 495.148 182.224 490.772 186.102C486.397 189.981 480.992 192.51 475.211 193.385C469.43 194.259 463.52 193.442 458.193 191.032C452.866 188.621 448.35 184.721 445.191 179.801C444.796 179.19 444.425 178.603 444.078 177.921C442.538 175.103 441.451 172.061 440.857 168.906C440.75 168.283 440.654 167.708 440.57 167.026C440.095 163.078 440.404 159.074 441.48 155.245C441.576 154.886 441.683 154.527 441.803 154.168C443.285 149.529 445.862 145.315 449.317 141.883C452.772 138.451 457.002 135.902 461.651 134.451C466.3 133.001 471.23 132.691 476.023 133.55C480.817 134.408 485.333 136.409 489.19 139.382C489.764 139.825 490.327 140.292 490.866 140.783C493.233 142.892 495.253 145.36 496.852 148.098C497.199 148.696 497.534 149.295 497.846 149.93C498.947 152.147 499.771 154.491 500.3 156.909C500.86 159.447 501.085 162.047 500.97 164.644C500.888 166.597 500.615 168.538 500.156 170.438C500.061 170.809 499.965 171.169 499.869 171.528Z" fill="#F5F5F5"/>
<path d="M493.691 170.965C493.823 170.366 493.943 169.768 494.027 169.169C494.439 166.507 494.394 163.795 493.895 161.148C493.407 158.493 492.476 155.939 491.141 153.593C490.806 152.994 490.435 152.396 490.052 151.833C488.226 149.17 485.89 146.895 483.18 145.141C482.497 144.722 481.803 144.315 481.084 143.943C479.645 143.214 478.137 142.629 476.583 142.195C470.578 140.525 464.161 141.231 458.663 144.167C453.166 147.103 449.01 152.044 447.059 157.963C447.155 157.604 447.239 157.245 447.334 156.885C449.06 150.694 453.175 145.441 458.773 142.283C464.372 139.125 470.996 138.321 477.187 140.046C483.379 141.772 488.632 145.887 491.79 151.485C494.948 157.084 495.752 163.708 494.027 169.899L493.691 170.965Z" fill="#E0E0E0"/>
<g opacity="0.3">
<path d="M464.168 186.721L463.341 186.481L462.515 186.206L462.312 186.134L461.45 185.799H461.318C460.392 185.41 459.493 184.962 458.624 184.458C458.337 184.29 458.038 184.123 457.762 183.943C457.188 183.584 456.649 183.201 456.11 182.806L455.607 182.411L455.332 182.183L454.949 181.812C454.745 181.632 454.542 181.465 454.35 181.273L453.608 180.567C453.368 180.327 453.129 180.076 452.902 179.824C452.674 179.573 452.518 179.417 452.339 179.19C452.159 178.962 452.099 178.915 451.992 178.771L451.704 178.424L451.393 178.017C451.225 177.801 451.058 177.574 450.902 177.346C450.746 177.119 450.627 176.951 450.495 176.736L450.399 176.604L449.849 175.718L449.382 174.868C449.286 174.688 449.202 174.509 449.118 174.341C449.034 174.174 448.939 173.982 448.855 173.802C448.771 173.623 448.699 173.467 448.615 173.288C448.532 173.108 448.448 172.916 448.376 172.725L448.16 172.174C448.089 171.995 448.017 171.815 447.957 171.623C447.813 171.24 447.682 170.857 447.562 170.426L447.418 169.935C447.31 169.552 447.215 169.145 447.119 168.738C447.119 168.547 447.035 168.355 446.999 168.163C446.867 167.541 446.772 166.966 446.688 166.296C446.688 166.128 446.688 165.961 446.688 165.793C446.688 165.422 446.616 165.051 446.604 164.668C446.604 164.284 446.604 163.913 446.604 163.542V163.015C446.604 162.92 446.604 162.836 446.604 162.752C446.604 162.668 446.604 162.381 446.604 162.189C446.599 162.162 446.599 162.133 446.604 162.105C446.604 161.902 446.604 161.686 446.604 161.483L446.676 160.788C446.676 160.549 446.676 160.322 446.76 160.094C446.844 159.867 446.76 159.735 446.844 159.543C446.927 159.352 446.844 159.316 446.844 159.196C446.844 159.076 446.903 158.873 446.939 158.705L447.083 158.023C449.034 152.104 453.19 147.163 458.687 144.227C464.185 141.291 470.602 140.585 476.607 142.255C478.161 142.689 479.669 143.274 481.108 144.003C481.827 144.374 482.521 144.781 483.204 145.2C485.914 146.955 488.25 149.23 490.076 151.893C490.459 152.456 490.83 153.09 491.165 153.653C492.5 155.999 493.431 158.553 493.919 161.208C494.418 163.854 494.463 166.567 494.05 169.229C493.967 169.828 493.847 170.426 493.715 171.025C491.747 176.934 487.581 181.861 482.081 184.783C476.58 187.705 470.166 188.398 464.168 186.721Z" fill="black"/>
</g>
<path d="M464.168 186.721L463.341 186.481L462.515 186.206L462.312 186.134L461.45 185.799H461.318C460.392 185.41 459.493 184.962 458.624 184.458C458.337 184.29 458.038 184.123 457.762 183.943C457.188 183.584 456.649 183.201 456.11 182.806L455.895 182.638C455.79 182.565 455.69 182.485 455.595 182.399L455.32 182.171L454.949 181.812C454.745 181.632 454.542 181.465 454.35 181.273L453.608 180.567C453.368 180.327 453.129 180.076 452.902 179.824C452.674 179.573 452.518 179.417 452.339 179.19C452.159 178.962 452.099 178.915 451.992 178.771L451.704 178.424L451.393 178.017C451.225 177.801 451.058 177.574 450.902 177.346C450.746 177.119 450.627 176.951 450.495 176.736L450.399 176.604L449.849 175.718L449.382 174.868C449.286 174.688 449.202 174.509 449.118 174.341C449.034 174.174 448.939 173.982 448.855 173.802C448.771 173.623 448.699 173.467 448.615 173.288C448.532 173.108 448.448 172.916 448.376 172.725L448.16 172.174C448.089 171.995 448.017 171.815 447.957 171.623C447.813 171.24 447.682 170.857 447.562 170.426L447.418 169.935C447.31 169.552 447.215 169.145 447.119 168.738C447.119 168.547 447.035 168.355 446.999 168.163C446.867 167.541 446.772 166.966 446.688 166.296C446.688 166.128 446.688 165.961 446.688 165.793C446.688 165.422 446.616 165.051 446.604 164.668C446.604 164.284 446.604 163.913 446.604 163.542V163.015C446.604 162.92 446.604 162.836 446.604 162.752C446.604 162.668 446.604 162.381 446.604 162.189C446.599 162.162 446.599 162.133 446.604 162.105C446.604 161.902 446.604 161.686 446.604 161.483L446.676 160.788C446.676 160.549 446.676 160.322 446.76 160.094C446.844 159.867 446.76 159.735 446.844 159.543C446.927 159.352 446.844 159.316 446.844 159.196C446.844 159.076 446.903 158.873 446.939 158.705L447.083 158.023C449.034 152.104 453.19 147.163 458.687 144.227C464.185 141.291 470.602 140.585 476.607 142.255C478.161 142.689 479.669 143.274 481.108 144.003C481.827 144.374 482.521 144.781 483.204 145.2C485.914 146.955 488.25 149.23 490.076 151.893C490.459 152.456 490.83 153.09 491.165 153.653C492.5 155.999 493.431 158.553 493.919 161.208C494.418 163.854 494.463 166.567 494.05 169.229C493.967 169.828 493.847 170.426 493.715 171.025C491.747 176.934 487.581 181.861 482.081 184.783C476.58 187.705 470.166 188.398 464.168 186.721Z" fill="#F0F0F0"/>
<path d="M470.226 177.538L469.148 181.405L464.215 180.04L465.257 176.341C462.149 175.345 459.31 173.649 456.96 171.384L461.282 166.116C463.346 168.217 465.908 169.761 468.729 170.606C471.123 171.252 472.045 171.001 472.321 170.163C473.171 167.086 458.96 165.805 461.546 156.682C462.647 152.731 466.43 150.217 472.381 151.007L473.446 147.2L478.367 148.577L477.325 152.312C479.752 153.189 481.972 154.554 483.85 156.323L479.708 161.603C477.934 159.879 475.775 158.602 473.41 157.879C471.016 157.209 470.034 157.7 469.818 158.538C469.004 161.471 483.204 162.788 480.689 171.803C479.54 175.574 475.9 178.1 470.226 177.538Z" fill="#E0E0E0"/>
<path d="M470.441 176.209L469.364 180.076L464.431 178.711L465.473 175C462.363 174.012 459.524 172.32 457.176 170.055L461.51 164.787C463.568 166.89 466.126 168.434 468.944 169.277C471.339 169.923 472.261 169.672 472.536 168.834C473.386 165.757 459.187 164.476 461.761 155.353C462.863 151.402 466.646 148.888 472.608 149.678L473.662 145.871L478.594 147.248L477.541 150.983C479.969 151.862 482.193 153.227 484.078 154.994L479.851 160.262C478.078 158.538 475.919 157.261 473.554 156.538C471.159 155.868 470.178 156.359 469.962 157.197C469.148 160.13 483.347 161.447 480.833 170.462C479.755 174.245 476.116 176.772 470.441 176.209Z" fill="#F5F5F5"/>
<path d="M182.039 66.0274L176.676 108.637L139.43 71.3911L182.039 66.0274Z" fill="#F5F5F5"/>
<path d="M59.7898 198.861L171.683 86.9671L160.681 75.9645L59.7898 176.855V198.861Z" fill="#F5F5F5"/>
<path d="M105.357 30.6252C105.357 30.8369 105.315 31.0465 105.233 31.2419C105.152 31.4374 105.033 31.6148 104.882 31.7639C104.732 31.913 104.554 32.0309 104.358 32.1109C104.162 32.1908 103.952 32.2311 103.74 32.2295H97.371V38.6228C97.3362 39.0259 97.1515 39.4013 96.8534 39.6748C96.5552 39.9483 96.1653 40.1 95.7607 40.1C95.3561 40.1 94.9662 39.9483 94.6681 39.6748C94.37 39.4013 94.1852 39.0259 94.1505 38.6228V32.2295H87.7572C87.3422 32.2171 86.9481 32.0443 86.6578 31.7473C86.3675 31.4504 86.2037 31.0525 86.2008 30.6372C86.2008 30.2117 86.3698 29.8037 86.6707 29.5028C86.9716 29.2019 87.3796 29.0329 87.8051 29.0329H94.1983V22.5798C94.2331 22.1767 94.4178 21.8013 94.716 21.5278C95.0141 21.2543 95.404 21.1025 95.8086 21.1025C96.2132 21.1025 96.6031 21.2543 96.9013 21.5278C97.1994 21.8013 97.3841 22.1767 97.4189 22.5798V28.973H103.812C104.236 28.9887 104.636 29.1712 104.925 29.4807C105.214 29.7903 105.369 30.2017 105.357 30.6252Z" fill="#F5F5F5"/>
<path d="M509.459 45.5069C509.459 45.7186 509.417 45.9281 509.336 46.1236C509.254 46.319 509.135 46.4964 508.985 46.6455C508.834 46.7946 508.656 46.9126 508.46 46.9925C508.264 47.0724 508.054 47.1127 507.843 47.1112H501.449V53.5044C501.469 53.7275 501.441 53.9522 501.369 54.1642C501.297 54.3763 501.181 54.571 501.03 54.736C500.879 54.901 500.695 55.0328 500.49 55.1229C500.285 55.2131 500.063 55.2596 499.839 55.2596C499.615 55.2596 499.394 55.2131 499.189 55.1229C498.984 55.0328 498.799 54.901 498.648 54.736C498.497 54.571 498.381 54.3763 498.309 54.1642C498.237 53.9522 498.21 53.7275 498.229 53.5044V47.1231H491.836C491.41 47.1231 491.002 46.9541 490.701 46.6532C490.4 46.3524 490.231 45.9443 490.231 45.5188C490.234 45.0943 490.404 44.6881 490.705 44.3879C491.005 44.0877 491.411 43.9177 491.836 43.9145H498.229V37.5213C498.264 37.1182 498.448 36.7428 498.746 36.4693C499.045 36.1958 499.434 36.044 499.839 36.044C500.244 36.044 500.634 36.1958 500.932 36.4693C501.23 36.7428 501.415 37.1182 501.449 37.5213V43.9145H507.843C508.267 43.9145 508.675 44.0815 508.977 44.3794C509.279 44.6774 509.453 45.0824 509.459 45.5069Z" fill="#F5F5F5"/>
<path d="M389.101 256.04C389.098 256.467 388.926 256.875 388.623 257.176C388.321 257.476 387.911 257.645 387.485 257.645H381.079V264.038C381.099 264.261 381.071 264.486 380.999 264.698C380.927 264.91 380.812 265.104 380.66 265.27C380.509 265.435 380.325 265.566 380.12 265.656C379.915 265.747 379.693 265.793 379.469 265.793C379.245 265.793 379.024 265.747 378.819 265.656C378.614 265.566 378.43 265.435 378.278 265.27C378.127 265.104 378.011 264.91 377.939 264.698C377.867 264.486 377.84 264.261 377.859 264.038V257.645H371.466C371.039 257.645 370.63 257.476 370.327 257.176C370.024 256.875 369.853 256.467 369.849 256.04C369.856 255.615 370.028 255.209 370.33 254.909C370.633 254.609 371.04 254.439 371.466 254.436H377.859V248.043C377.894 247.64 378.078 247.264 378.377 246.991C378.675 246.717 379.065 246.566 379.469 246.566C379.874 246.566 380.264 246.717 380.562 246.991C380.86 247.264 381.045 247.64 381.079 248.043V254.436H387.473C387.9 254.436 388.311 254.604 388.616 254.905C388.92 255.205 389.095 255.613 389.101 256.04Z" fill="#F5F5F5"/>
<path d="M511.362 100.4C509.088 95.0843 503.341 85.1473 491.464 82.4415C480.606 79.9633 472.392 93.6955 465.664 94.7012C458.936 95.7069 459.678 92.6779 446.197 87.6256C434.68 83.2916 426.957 94.5456 424.216 100.4H511.362Z" fill="#F5F5F5"/>
<path d="M268.492 38.97C268.492 38.97 268.492 26.8779 256.615 26.3631C250.928 26.1236 243.996 30.7689 239.614 23.4179C234.526 14.8816 225.631 9.79337 217.621 13.0977C208.774 16.6894 203.757 30.745 195.113 29.5956C186.469 28.4463 169.971 22.6996 161.459 38.97H268.492Z" fill="#F5F5F5"/>
<path d="M296.303 437.613C436.481 437.613 550.117 434.359 550.117 430.346C550.117 426.332 436.481 423.078 296.303 423.078C156.126 423.078 42.4898 426.332 42.4898 430.346C42.4898 434.359 156.126 437.613 296.303 437.613Z" fill="#F0F0F0"/>
<path d="M442.593 374.722C445.003 381.9 445.513 389.58 444.075 397.013C442.636 404.447 439.298 411.382 434.386 417.143C429.473 422.904 423.152 427.296 416.039 429.891C408.926 432.485 401.263 433.195 393.794 431.95C390.388 431.366 387.062 430.39 383.881 429.041C382.911 428.622 381.953 428.179 381.02 427.7C376.884 425.582 373.114 422.817 369.849 419.511C369.203 418.864 368.58 418.194 367.982 417.511C364.204 413.171 361.316 408.131 359.481 402.678C359.314 402.163 359.146 401.648 359.002 401.121C357.013 394.367 356.679 387.234 358.027 380.324C359.375 373.414 362.366 366.929 366.748 361.418C371.129 355.907 376.773 351.531 383.201 348.66C389.63 345.789 396.655 344.508 403.683 344.923C404.749 344.995 405.79 345.091 406.844 345.234C411.383 345.844 415.798 347.161 419.93 349.137C420.828 349.568 421.726 350.035 422.6 350.526C431.541 355.563 438.424 363.586 442.043 373.19C442.234 373.693 442.414 374.207 442.593 374.722Z" fill="#E3B250"/>
<path d="M442.593 374.722C445.003 381.9 445.513 389.58 444.075 397.013C442.636 404.447 439.298 411.382 434.386 417.143C429.473 422.904 423.152 427.296 416.039 429.891C408.926 432.485 401.263 433.195 393.794 431.95C390.388 431.366 387.062 430.39 383.881 429.041C382.911 428.622 381.953 428.179 381.02 427.7C376.884 425.582 373.114 422.817 369.849 419.511C369.203 418.864 368.58 418.194 367.982 417.511C364.204 413.171 361.316 408.131 359.481 402.678C359.314 402.163 359.146 401.648 359.002 401.121C357.013 394.367 356.679 387.234 358.027 380.324C359.375 373.414 362.366 366.929 366.748 361.418C371.129 355.907 376.773 351.531 383.201 348.66C389.63 345.789 396.655 344.508 403.683 344.923C404.749 344.995 405.79 345.091 406.844 345.234C411.383 345.844 415.798 347.161 419.93 349.137C420.828 349.568 421.726 350.035 422.6 350.526C431.541 355.563 438.424 363.586 442.043 373.19C442.234 373.693 442.414 374.207 442.593 374.722Z" fill="#E3B250"/>
<path opacity="0.6" d="M434.74 379.056C434.416 378.23 434.069 377.428 433.686 376.662C430.292 369.578 424.617 363.839 417.571 360.367C416.673 359.924 415.763 359.517 414.83 359.17C410.486 357.468 405.845 356.653 401.181 356.776C400.016 356.8 398.853 356.884 397.697 357.027C395.383 357.319 393.105 357.844 390.897 358.595C382.357 361.477 375.253 367.535 371.058 375.512C366.864 383.49 365.899 392.775 368.365 401.444L367.826 399.936C366.306 395.562 365.668 390.929 365.949 386.307C366.23 381.684 367.424 377.164 369.463 373.005C371.502 368.847 374.344 365.135 377.826 362.082C381.309 359.029 385.362 356.697 389.751 355.22C394.14 353.743 398.778 353.15 403.398 353.477C408.017 353.803 412.526 355.042 416.664 357.122C420.801 359.201 424.486 362.08 427.504 365.592C430.523 369.105 432.815 373.18 434.249 377.584C434.428 378.038 434.596 378.553 434.74 379.056Z" fill="black"/>
<g opacity="0.3">
<path d="M412.208 421.905C411.812 422.049 411.417 422.169 411.01 422.288L409.813 422.624L409.514 422.707L408.197 423.007H408.005C406.583 423.3 405.143 423.5 403.695 423.605C403.204 423.605 402.725 423.677 402.235 423.677C401.265 423.677 400.307 423.677 399.337 423.677L398.403 423.617H397.901L397.158 423.533C396.775 423.533 396.376 423.486 395.961 423.39C395.47 423.318 394.991 423.246 394.5 423.138C394.01 423.031 393.531 422.947 393.052 422.839C392.573 422.731 392.262 422.647 391.855 422.528L391.088 422.312L390.478 422.133L389.771 421.893L388.634 421.486C388.299 421.366 387.976 421.235 387.652 421.091L387.437 421.007C386.982 420.804 386.515 420.612 386.06 420.397C385.605 420.181 385.222 419.99 384.803 419.762H384.731L383.977 419.355L383.246 418.924L382.54 418.505L381.786 418.026L381.079 417.547L380.385 417.056C379.906 416.709 379.439 416.35 378.972 415.967L378.41 415.512C377.955 415.129 377.512 414.73 377.081 414.315L376.458 413.728C375.812 413.094 375.189 412.423 374.59 411.741L374.112 411.178C373.764 410.759 373.429 410.352 373.094 409.909V409.849C372.771 409.418 372.447 408.975 372.148 408.52L371.717 407.898L371.514 407.574C371.37 407.347 371.226 407.119 371.095 406.892L371.023 406.784C370.867 406.533 370.711 406.257 370.568 405.994C370.424 405.731 370.233 405.407 370.089 405.108C369.945 404.809 369.766 404.521 369.622 404.222C369.478 403.923 369.394 403.743 369.275 403.492C369.155 403.24 369.131 403.18 369.071 403.025C368.963 402.811 368.867 402.591 368.784 402.366L368.389 401.42C365.923 392.751 366.887 383.466 371.082 375.488C375.277 367.511 382.381 361.453 390.921 358.572C393.129 357.82 395.407 357.295 397.721 357.003C398.877 356.86 400.04 356.776 401.205 356.752C405.869 356.63 410.51 357.444 414.853 359.146C415.787 359.505 416.697 359.912 417.595 360.343C424.641 363.815 430.316 369.554 433.71 376.638C434.093 377.428 434.44 378.23 434.763 379.032C437.238 387.708 436.275 397.003 432.075 404.988C427.874 412.972 420.759 419.031 412.208 421.905Z" fill="black"/>
</g>
<g opacity="0.6">
<path d="M411.992 405.982L413.848 411.501L406.844 413.896L405.072 408.628C400.546 409.962 395.776 410.244 391.124 409.454L392.022 399.625C396.199 400.465 400.52 400.23 404.581 398.942C407.909 397.829 408.867 396.727 408.472 395.53C407 391.16 388.945 401.157 384.587 388.191C382.696 382.576 385.174 376.482 392.968 372.627L391.148 367.204L398.152 364.809L399.948 370.137C403.561 369.211 407.326 369.036 411.01 369.622L410.34 379.308C406.816 378.692 403.196 378.926 399.78 379.99C396.344 381.187 395.59 382.504 395.985 383.689C397.398 387.868 415.464 377.919 419.774 390.741C421.558 396.117 419.247 402.103 411.992 405.982Z" fill="black"/>
</g>
<path d="M411.178 404.222L413.034 409.741L406.018 412.136L404.246 406.868C399.719 408.198 394.949 408.477 390.298 407.682L391.208 397.865C395.381 398.694 399.696 398.459 403.755 397.182C407.095 396.057 408.053 394.955 407.646 393.77C406.174 389.388 388.119 399.397 383.761 386.419C381.87 380.804 384.36 374.71 392.142 370.855L390.298 365.372L397.314 362.977L399.098 368.293C402.712 367.374 406.476 367.199 410.16 367.778L409.49 377.476C405.966 376.863 402.348 377.093 398.93 378.146C395.494 379.343 394.74 380.66 395.147 381.858C396.548 386.036 414.614 376.075 418.924 388.909C420.732 394.309 418.433 400.283 411.178 404.222Z" fill="#E3B250"/>
<path d="M204.176 193.581C202.684 199.977 199.775 205.957 195.663 211.079C191.552 216.201 186.343 220.335 180.421 223.176C174.498 226.016 168.014 227.491 161.446 227.491C154.878 227.491 148.393 226.017 142.471 223.176C138.918 221.476 135.615 219.297 132.653 216.699C130.055 214.42 127.733 211.844 125.733 209.025C125.123 208.163 124.536 207.277 124.009 206.379C121.603 202.408 119.841 198.08 118.79 193.557C118.586 192.659 118.406 191.773 118.251 190.863C117.307 185.187 117.494 179.381 118.801 173.778C118.921 173.252 119.053 172.725 119.209 172.21C121.054 165.413 124.509 159.161 129.282 153.982C134.054 148.803 140.004 144.85 146.627 142.456C153.251 140.063 160.354 139.3 167.334 140.232C174.315 141.164 180.969 143.763 186.733 147.81C187.595 148.421 188.433 149.008 189.247 149.726C192.796 152.623 195.867 156.061 198.346 159.914C198.884 160.753 199.411 161.615 199.89 162.489C203.454 168.942 205.336 176.188 205.361 183.56C205.357 186.372 205.088 189.178 204.559 191.94C204.404 192.515 204.296 193.054 204.176 193.581Z" fill="#E3B250"/>
<path d="M204.176 193.581C202.684 199.977 199.775 205.957 195.663 211.079C191.552 216.201 186.343 220.335 180.421 223.176C174.498 226.016 168.014 227.491 161.446 227.491C154.878 227.491 148.393 226.017 142.471 223.176C138.918 221.476 135.615 219.297 132.653 216.699C130.055 214.42 127.733 211.844 125.733 209.025C125.123 208.163 124.536 207.277 124.009 206.379C121.603 202.408 119.841 198.08 118.79 193.557C118.586 192.659 118.406 191.773 118.251 190.863C117.307 185.187 117.494 179.381 118.801 173.778C118.921 173.252 119.053 172.725 119.209 172.21C121.054 165.413 124.509 159.161 129.282 153.982C134.054 148.803 140.004 144.85 146.627 142.456C153.251 140.063 160.354 139.3 167.334 140.232C174.315 141.164 180.969 143.763 186.733 147.81C187.595 148.421 188.433 149.008 189.247 149.726C192.796 152.623 195.867 156.061 198.346 159.914C198.884 160.753 199.411 161.615 199.89 162.489C203.454 168.942 205.336 176.188 205.361 183.56C205.357 186.372 205.088 189.178 204.559 191.94C204.404 192.515 204.296 193.054 204.176 193.581Z" fill="#E3B250"/>
<path opacity="0.6" d="M195.209 193.15C195.365 192.288 195.496 191.414 195.58 190.54C196.392 182.726 194.553 174.866 190.36 168.223C189.833 167.369 189.271 166.543 188.672 165.745C185.87 162.012 182.349 158.877 178.316 156.526C177.31 155.94 176.275 155.404 175.215 154.922C170.614 152.823 165.613 151.745 160.555 151.763C155.498 151.78 150.504 152.892 145.917 155.023C141.331 157.154 137.26 160.252 133.984 164.106C130.709 167.959 128.307 172.476 126.943 177.346C127.05 176.819 127.158 176.293 127.278 175.766C129.605 166.958 135.27 159.403 143.072 154.702C150.875 150 160.202 148.522 169.076 150.58C177.95 152.638 185.674 158.071 190.61 165.727C195.547 173.383 197.308 182.661 195.52 191.593C195.484 192.12 195.341 192.647 195.209 193.15Z" fill="black"/>
<g opacity="0.3">
<path d="M153.545 217.813C153.138 217.729 152.743 217.621 152.348 217.513L151.151 217.166L150.851 217.07L149.57 216.639L149.391 216.568C148.027 216.068 146.695 215.485 145.404 214.82C144.973 214.592 144.542 214.365 144.123 214.113C143.273 213.634 142.459 213.132 141.729 212.581L140.974 212.042L140.555 211.731L139.969 211.276C139.669 211.048 139.37 210.809 139.071 210.546C138.771 210.282 138.316 209.911 137.957 209.564C137.598 209.217 137.227 208.893 136.88 208.546C136.533 208.199 136.317 207.971 136.042 207.672C135.766 207.373 135.671 207.289 135.503 207.086C135.335 206.882 135.216 206.762 135.072 206.607L134.593 206.032L133.839 205.086C133.623 204.811 133.408 204.535 133.216 204.248L133.073 204.057C132.785 203.649 132.498 203.23 132.222 202.859C131.947 202.488 131.72 202.069 131.48 201.662V201.602C131.337 201.363 131.193 201.111 131.061 200.86C130.929 200.608 130.786 200.357 130.654 200.106L130.271 199.375C130.151 199.112 130.008 198.849 129.888 198.585L129.541 197.795C129.421 197.544 129.313 197.28 129.205 197.017C128.978 196.478 128.774 195.927 128.571 195.353L128.331 194.67C128.14 194.107 127.972 193.533 127.829 192.97C127.745 192.683 127.673 192.407 127.601 192.132C127.386 191.246 127.206 190.36 127.05 189.462L126.943 188.744C126.859 188.205 126.799 187.666 126.739 187.128V187.044C126.739 186.505 126.643 185.954 126.619 185.416V184.661V184.206C126.619 183.943 126.619 183.668 126.619 183.404V183.284C126.619 182.973 126.619 182.674 126.619 182.363C126.619 182.051 126.619 181.692 126.619 181.357C126.619 181.022 126.619 180.686 126.691 180.363C126.763 180.04 126.691 179.824 126.787 179.561C126.883 179.298 126.787 179.214 126.787 179.046C126.787 178.879 126.847 178.579 126.883 178.34C126.919 178.1 126.991 177.669 127.05 177.334C128.414 172.464 130.817 167.947 134.092 164.094C137.367 160.24 141.438 157.142 146.025 155.011C150.612 152.88 155.606 151.768 160.663 151.751C165.72 151.733 170.722 152.811 175.323 154.91C176.383 155.392 177.418 155.928 178.424 156.514C182.457 158.865 185.978 162 188.78 165.733C189.378 166.531 189.941 167.357 190.468 168.211C194.644 174.86 196.466 182.72 195.64 190.528C195.556 191.402 195.424 192.276 195.269 193.138C192.824 201.828 187.123 209.242 179.352 213.837C171.582 218.433 162.339 219.857 153.545 217.813Z" fill="black"/>
</g>
<g opacity="0.6">
<path d="M161.722 204.152L160.405 209.815L153.246 208.151L154.443 202.74C149.903 201.516 145.701 199.272 142.16 196.179L148.074 188.289C151.191 191.188 154.993 193.247 159.124 194.275C162.548 195.077 163.913 194.646 164.225 193.413C165.266 188.923 144.65 187.966 147.739 174.628C149.08 168.858 154.395 164.979 163.039 165.745L164.332 160.166L171.516 161.842L170.247 167.313C173.807 168.423 177.102 170.249 179.932 172.677L174.281 180.567C171.598 178.202 168.394 176.504 164.931 175.61C161.411 174.784 160.046 175.55 159.759 176.807C158.765 181.106 179.37 182.111 176.317 195.293C175.06 200.728 170.007 204.559 161.722 204.152Z" fill="black"/>
</g>
<path d="M161.95 202.165L160.633 207.84L153.449 206.164L154.647 200.752C150.096 199.513 145.89 197.248 142.351 194.131L148.265 186.242C151.383 189.14 155.185 191.2 159.316 192.228C162.74 193.018 164.105 192.587 164.416 191.366C165.458 186.864 144.841 185.906 147.93 172.569C149.271 166.799 154.587 162.92 163.231 163.686L164.524 158.119L171.707 159.783L170.438 165.254C173.998 166.364 177.294 168.189 180.124 170.618L174.473 178.52C171.793 176.146 168.589 174.443 165.122 173.551C161.603 172.737 160.238 173.551 159.95 174.748C158.957 179.034 179.561 180.04 176.508 193.222C175.287 198.789 170.187 202.668 161.95 202.165Z" fill="#E3B250"/>
<path d="M502.958 332.28L515.864 345.186L431.495 429.555H453.524L526.879 356.201L540.216 369.526L545.579 326.917L502.958 332.28Z" fill="#E3B250"/>
<g opacity="0.3">
<path d="M502.958 332.28L515.864 345.186L431.495 429.555H453.524L526.879 356.201L540.216 369.526L545.579 326.917L502.958 332.28Z" fill="white"/>
</g>
<path d="M179.142 294.424L192.048 307.342L69.8227 429.555H91.8398L203.063 318.356L216.4 331.682L221.764 289.06L179.142 294.424Z" fill="#E3B250"/>
<g opacity="0.3">
<path d="M179.142 294.424L192.048 307.342L69.8227 429.555H91.8398L203.063 318.356L216.4 331.682L221.764 289.06L179.142 294.424Z" fill="white"/>
</g>
<path d="M230.827 66.4824L234.311 65.4887L232.084 57.7545L228.061 58.9518C226.909 57.6477 225.465 56.6344 223.847 55.9946V51.924H215.801V55.9946C214.539 56.4949 213.379 57.2211 212.377 58.1376L208.786 56.4136L205.266 63.597L208.798 65.321C208.798 65.6084 208.798 65.9077 208.798 66.195C208.798 68.0771 209.28 69.9277 210.198 71.5706L207.552 74.887L213.838 79.9034L216.412 76.6828C217.514 77.04 218.666 77.2218 219.824 77.2216C220.671 77.2201 221.515 77.1196 222.338 76.9222L224.661 80.1907L231.222 75.5335L228.959 72.3488C230.131 70.613 230.78 68.5765 230.827 66.4824ZM212.581 66.195C212.581 64.7768 213.001 63.3904 213.787 62.2104C214.574 61.0305 215.692 60.1098 217.002 59.5644C218.311 59.0189 219.752 58.8732 221.144 59.1456C222.536 59.418 223.816 60.0962 224.823 61.0948C225.829 62.0935 226.518 63.3678 226.802 64.7573C227.086 66.1468 226.952 67.5892 226.418 68.9028C225.883 70.2164 224.972 71.3424 223.799 72.1388C222.625 72.9353 221.242 73.3666 219.824 73.3784C217.914 73.3754 216.083 72.6195 214.727 71.2747C213.371 69.9299 212.6 68.1047 212.581 66.195Z" fill="#E3B250"/>
<path opacity="0.6" d="M230.827 66.4824L234.311 65.4887L232.084 57.7545L228.061 58.9518C226.909 57.6477 225.465 56.6344 223.847 55.9946V51.924H215.801V55.9946C214.539 56.4949 213.379 57.2211 212.377 58.1376L208.786 56.4136L205.266 63.597L208.798 65.321C208.798 65.6084 208.798 65.9077 208.798 66.195C208.798 68.0771 209.28 69.9277 210.198 71.5706L207.552 74.887L213.838 79.9034L216.412 76.6828C217.514 77.04 218.666 77.2218 219.824 77.2216C220.671 77.2201 221.515 77.1196 222.338 76.9222L224.661 80.1907L231.222 75.5335L228.959 72.3488C230.131 70.613 230.78 68.5765 230.827 66.4824ZM212.581 66.195C212.581 64.7768 213.001 63.3904 213.787 62.2104C214.574 61.0305 215.692 60.1098 217.002 59.5644C218.311 59.0189 219.752 58.8732 221.144 59.1456C222.536 59.418 223.816 60.0962 224.823 61.0948C225.829 62.0935 226.518 63.3678 226.802 64.7573C227.086 66.1468 226.952 67.5892 226.418 68.9028C225.883 70.2164 224.972 71.3424 223.799 72.1388C222.625 72.9353 221.242 73.3666 219.824 73.3784C217.914 73.3754 216.083 72.6195 214.727 71.2747C213.371 69.9299 212.6 68.1047 212.581 66.195Z" fill="white"/>
<path d="M404.162 218.016L407.634 217.023L405.419 209.348L401.397 210.545C400.244 209.241 398.8 208.228 397.182 207.588V203.362H389.101V207.433C387.837 207.93 386.677 208.657 385.677 209.576L382.085 207.852L378.565 215.035L382.157 216.759C382.157 217.046 382.157 217.334 382.157 217.633C382.152 219.516 382.634 221.368 383.558 223.009L380.9 226.325L387.197 231.341L389.771 228.121C390.874 228.478 392.025 228.66 393.184 228.66C394.03 228.657 394.874 228.557 395.698 228.36L398.02 231.629L404.581 226.972L402.271 223.871C403.449 222.141 404.106 220.109 404.162 218.016ZM385.916 217.729C385.928 216.313 386.358 214.933 387.152 213.761C387.946 212.589 389.068 211.677 390.378 211.141C391.688 210.605 393.128 210.467 394.516 210.747C395.903 211.026 397.178 211.709 398.179 212.71C399.18 213.711 399.863 214.985 400.142 216.373C400.421 217.761 400.284 219.2 399.748 220.51C399.211 221.82 398.3 222.943 397.128 223.737C395.956 224.53 394.575 224.96 393.16 224.972C392.206 224.98 391.261 224.798 390.378 224.437C389.496 224.076 388.694 223.543 388.02 222.868C387.346 222.194 386.813 221.393 386.451 220.51C386.09 219.628 385.908 218.682 385.916 217.729Z" fill="#E3B250"/>
<path opacity="0.6" d="M404.162 218.016L407.634 217.023L405.419 209.348L401.397 210.545C400.244 209.241 398.8 208.228 397.182 207.588V203.362H389.101V207.433C387.837 207.93 386.677 208.657 385.677 209.576L382.085 207.852L378.565 215.035L382.157 216.759C382.157 217.046 382.157 217.334 382.157 217.633C382.152 219.516 382.634 221.368 383.558 223.009L380.9 226.325L387.197 231.341L389.771 228.121C390.874 228.478 392.025 228.66 393.184 228.66C394.03 228.657 394.874 228.557 395.698 228.36L398.02 231.629L404.581 226.972L402.271 223.871C403.449 222.141 404.106 220.109 404.162 218.016ZM385.916 217.729C385.928 216.313 386.358 214.933 387.152 213.761C387.946 212.589 389.068 211.677 390.378 211.141C391.688 210.605 393.128 210.467 394.516 210.747C395.903 211.026 397.178 211.709 398.179 212.71C399.18 213.711 399.863 214.985 400.142 216.373C400.421 217.761 400.284 219.2 399.748 220.51C399.211 221.82 398.3 222.943 397.128 223.737C395.956 224.53 394.575 224.96 393.16 224.972C392.206 224.98 391.261 224.798 390.378 224.437C389.496 224.076 388.694 223.543 388.02 222.868C387.346 222.194 386.813 221.393 386.451 220.51C386.09 219.628 385.908 218.682 385.916 217.729Z" fill="white"/>
<path d="M489.07 219.142L483.706 261.751L471.076 249.12L346.24 373.944H217.801L162.177 429.555H140.172L211.348 358.38H339.799L460.061 238.106L446.46 224.505L489.07 219.142Z" fill="#E3B250"/>
<path d="M314.226 332.101V349.904L321.409 350.478L324.929 333.813L314.226 332.101Z" fill="#FF8B7B"/>
<path d="M319.326 348.802C319.326 348.802 321.589 344.456 322.918 344.923C324.247 345.39 324.798 350.658 324.798 350.658C324.798 350.658 331.981 353.052 334.064 353.208C336.147 353.363 337.728 354.477 337.991 358.44H313.244C313.244 358.44 313.412 349.508 313.46 347.976C313.508 346.443 315.687 348.359 315.687 348.359L319.326 348.802Z" fill="#263238"/>
<path d="M313.52 351.364C313.965 351.608 314.355 351.94 314.667 352.341C314.979 352.741 315.205 353.202 315.332 353.693C315.459 354.185 315.483 354.697 315.404 355.198C315.325 355.7 315.144 356.179 314.872 356.608C314.857 356.629 314.846 356.653 314.84 356.679C314.834 356.705 314.833 356.732 314.838 356.757C314.843 356.783 314.853 356.808 314.868 356.83C314.883 356.852 314.902 356.87 314.924 356.884C314.947 356.898 314.972 356.908 314.998 356.912C315.024 356.916 315.05 356.914 315.076 356.907C315.101 356.9 315.125 356.888 315.146 356.872C315.166 356.855 315.183 356.835 315.196 356.812C315.496 356.344 315.697 355.821 315.788 355.273C315.879 354.725 315.857 354.164 315.723 353.625C315.59 353.086 315.348 352.58 315.012 352.138C314.677 351.696 314.254 351.326 313.771 351.053C313.567 350.933 313.328 351.268 313.532 351.388L313.52 351.364Z" fill="white"/>
<path d="M313.484 357.015L332.891 357.219H337.404C337.656 357.219 337.716 356.824 337.464 356.824L318.045 356.62H313.532C313.28 356.62 313.232 357.015 313.532 357.015H313.484Z" fill="white"/>
<path d="M323.732 352.214C323.918 351.927 324.161 351.682 324.446 351.492C324.731 351.303 325.051 351.174 325.388 351.113C325.724 351.053 326.07 351.062 326.403 351.14C326.736 351.218 327.049 351.364 327.324 351.568C327.503 351.723 327.743 351.376 327.563 351.232C326.294 350.191 324.558 350.634 323.397 352.011C323.229 352.214 323.54 352.418 323.72 352.214H323.732Z" fill="white"/>
<path d="M325.779 352.849C325.968 352.564 326.212 352.321 326.497 352.134C326.782 351.946 327.103 351.819 327.439 351.76C327.775 351.701 328.119 351.71 328.452 351.788C328.784 351.866 329.097 352.011 329.371 352.214C329.563 352.37 329.802 352.023 329.61 351.879C328.341 350.825 326.605 351.28 325.444 352.657C325.276 352.861 325.588 353.052 325.767 352.849H325.779Z" fill="white"/>
<path d="M327.898 353.495C328.087 353.211 328.331 352.967 328.616 352.78C328.901 352.593 329.222 352.466 329.558 352.406C329.894 352.347 330.239 352.357 330.571 352.435C330.903 352.513 331.216 352.658 331.49 352.861C331.682 353.004 331.921 352.669 331.729 352.513C330.46 351.472 328.724 351.927 327.575 353.304C327.395 353.507 327.707 353.699 327.886 353.495H327.898Z" fill="white"/>
<path d="M309.904 155.664C310.107 158.837 309.676 168.594 310.107 173.826C310.91 183.811 311.999 196.753 312.861 209.743C313.867 224.757 314.585 239.782 314.226 250.222C313.304 277.004 313.508 337.716 313.508 337.716H325.133C325.133 337.716 338.781 277.375 341.331 250.222C343.462 227.702 342.337 169.696 341.978 155.64L309.904 155.664Z" fill="#263238"/>
<path opacity="0.2" d="M310.084 173.826C310.886 183.811 311.975 196.753 312.837 209.743C318.56 192.814 313.244 167.23 313.244 167.23L310.084 173.826Z" fill="black"/>
<path d="M312.502 338.099H326.138L327.132 333.753L312.143 333.573L312.502 338.099Z" fill="#E3B250"/>
<path d="M250.066 328.784L247.348 346.372L254.364 348.036L260.386 332.101L250.066 328.784Z" fill="#FF8B7B"/>
<path d="M252.616 346.06C252.616 346.06 255.514 342.121 256.759 342.78C258.004 343.438 257.74 348.766 257.74 348.766C257.74 348.766 264.529 352.262 266.516 352.705C268.504 353.148 269.94 354.525 269.593 358.476L245.134 354.692C245.134 354.692 246.666 345.893 246.941 344.384C247.217 342.876 249.084 345.103 249.084 345.103L252.616 346.06Z" fill="#263238"/>
<path d="M246.427 347.713C246.825 348.022 247.156 348.409 247.4 348.851C247.643 349.292 247.794 349.779 247.844 350.281C247.893 350.783 247.84 351.29 247.686 351.77C247.533 352.251 247.284 352.695 246.953 353.076C246.798 353.28 247.073 353.531 247.241 353.316C247.609 352.901 247.889 352.415 248.063 351.888C248.237 351.361 248.301 350.804 248.252 350.251C248.202 349.698 248.04 349.161 247.776 348.673C247.512 348.185 247.15 347.756 246.714 347.413C246.534 347.258 246.247 347.557 246.427 347.713Z" fill="white"/>
<path d="M245.529 353.292L264.684 356.452L269.138 357.183C269.39 357.183 269.497 356.847 269.246 356.812L250.09 353.639L245.636 352.909C245.385 352.909 245.277 353.244 245.529 353.292Z" fill="white"/>
<path d="M256.388 350.107C256.617 349.852 256.896 349.646 257.208 349.502C257.52 349.359 257.858 349.281 258.201 349.273C258.544 349.265 258.886 349.327 259.204 349.457C259.522 349.586 259.81 349.778 260.051 350.023C260.207 350.203 260.494 349.903 260.338 349.724C260.054 349.449 259.718 349.234 259.349 349.092C258.98 348.949 258.587 348.882 258.192 348.895C257.796 348.907 257.408 348.998 257.049 349.163C256.689 349.328 256.367 349.564 256.1 349.856C255.897 350.035 256.184 350.287 256.388 350.107Z" fill="white"/>
<path d="M258.315 351.053C258.544 350.797 258.824 350.591 259.136 350.448C259.448 350.305 259.786 350.226 260.129 350.219C260.472 350.211 260.813 350.273 261.131 350.402C261.45 350.531 261.738 350.724 261.979 350.969C262.134 351.149 262.422 350.849 262.266 350.67C261.165 349.473 259.381 349.628 258.028 350.813C257.824 350.993 258.112 351.232 258.315 351.053Z" fill="white"/>
<path d="M260.303 352.011C260.534 351.756 260.815 351.55 261.128 351.408C261.441 351.265 261.781 351.188 262.125 351.182C262.469 351.175 262.811 351.239 263.13 351.369C263.448 351.499 263.737 351.693 263.978 351.939C264.134 352.106 264.421 351.807 264.265 351.64C263.164 350.442 261.38 350.586 260.027 351.771C259.824 351.951 260.111 352.19 260.303 352.011Z" fill="white"/>
<path d="M290.988 252.544C283.804 278.884 259.668 335.752 259.668 335.752L248.211 333.765C248.211 333.765 260.183 274.55 265.642 248.33C270.599 224.661 276.046 170.295 277.806 154.108L316.237 157.568C314.19 171.432 296.95 230.719 290.988 252.544Z" fill="#263238"/>
<path d="M247.145 333.992L260.59 336.339L262.314 332.22L247.348 329.491L247.145 333.992Z" fill="#E3B250"/>
<path d="M275.567 154.108C275.412 155.796 278.86 159.591 280.548 159.663L340.206 160.705C342.002 160.788 344.109 159.507 344.049 157.759C343.438 136.604 338.506 63.8365 336.866 59.2511C334.818 53.6121 323.469 51.5768 318.512 51.1338C310.683 50.6056 302.827 50.6056 294.998 51.1338C291.179 51.3134 287.695 51.6487 284.798 52.0078C283.756 52.1361 282.751 52.4732 281.842 52.999C280.934 53.5247 280.14 54.2283 279.51 55.0677C278.88 55.9071 278.425 56.865 278.173 57.8842C277.922 58.9033 277.878 59.9627 278.046 60.999C279.333 69.0957 280.172 77.2573 280.56 85.4466C280.56 85.8536 280.56 86.2367 280.56 86.6438C280.691 89.3974 280.823 92.1152 280.835 94.8089C280.835 95.3357 280.835 95.8864 280.835 96.4132C280.62 123.746 277.064 137.167 275.567 154.108Z" fill="white"/>
<path d="M299.308 160.98C291.335 161.471 270.228 160.98 270.228 157.652C270.228 152.097 277.818 113.677 278.536 105.991C278.644 104.794 278.752 103.225 278.872 101.322C279.075 97.7302 279.279 93.1927 279.47 88.2601C280.057 72.8876 280.536 54.2107 280.536 54.2107C280.536 54.2107 281.003 49.9845 299.56 50.8824C299.56 50.8824 304.181 73.4383 304.349 93.2884C304.516 113.139 302.026 160.812 299.308 160.98Z" fill="#E3B250"/>
<path d="M318.464 51.1339C318.464 51.1339 326.641 72.7679 325.743 105.536C324.845 138.304 324.438 162.165 324.438 162.165C324.438 162.165 344.025 163.363 345.737 160.453C346.659 158.861 344.396 130.283 343.103 113.534C341.631 94.4617 338.673 63.1421 337.56 59.3828C335.668 52.8818 318.464 51.1339 318.464 51.1339Z" fill="#E3B250"/>
<path d="M415.536 45.7702C409.789 50.8226 403.923 55.6714 397.853 60.3406C394.836 62.735 391.747 64.9619 388.598 67.2247C387.018 68.3501 385.413 69.4395 383.749 70.541C382.085 71.6425 380.409 72.708 378.302 73.7975C377.007 74.4744 375.636 74.9968 374.219 75.3539C372.958 75.6538 371.678 75.8658 370.388 75.9884C368.184 76.2018 365.968 76.2698 363.755 76.1919C359.706 76.0139 355.669 75.6142 351.663 74.9947C348.275 74.5038 344.959 73.9052 341.667 73.2228L339.38 72.7319C335.788 71.9537 332.292 71.0558 328.724 70.0501L332.244 54.4861C335.901 55.7877 339.656 56.7926 343.474 57.4912C347.066 58.2933 350.658 59.0476 354.19 59.706C357.721 60.3645 361.265 60.9033 364.617 61.2505C366.18 61.4156 367.751 61.4916 369.323 61.4779C369.919 61.4665 370.515 61.4226 371.106 61.3462C371.52 61.2959 371.924 61.1829 372.304 61.011C373.633 60.4842 375.261 59.6701 376.829 58.856C378.398 58.0419 380.026 57.12 381.618 56.2341C384.863 54.4622 388.095 52.5585 391.352 50.7028C397.841 46.9316 404.414 43.1483 410.986 39.4369L415.536 45.7702Z" fill="#E3B250"/>
<path opacity="0.2" d="M341.667 73.2707L339.38 72.7798L338.183 64.2795L341.667 73.2707Z" fill="black"/>
<path d="M424.802 30.9604C424.802 30.9604 425.868 34.4803 425.078 36.348C424.288 38.2157 420.552 39.1495 420.552 39.1495C420.552 39.1495 422.623 33.3549 424.802 30.9604Z" fill="#FF8B7B"/>
<path opacity="0.2" d="M424.802 30.9604C424.802 30.9604 425.868 34.4803 425.078 36.348C424.288 38.2157 420.552 39.1495 420.552 39.1495C420.552 39.1495 422.623 33.3549 424.802 30.9604Z" fill="black"/>
<path d="M424.407 34.2648C423.041 35.5281 421.91 37.0239 421.067 38.6826C422.839 39.2693 425.712 37.8326 426.359 38.5509C427.005 39.2693 425.162 40.4904 422.276 41.9271C420.756 42.6574 420.229 44.3934 418.206 45.0998C417.335 45.4041 416.443 45.6403 415.536 45.8062C413.309 44.9681 410.903 39.4848 410.903 39.4848L416.218 35.4261C416.218 35.4261 421.115 31.7027 423.186 30.9605C425.257 30.2182 430.657 26.6983 431.028 27.5962C431.555 28.8533 427.879 31.7027 424.407 34.2648Z" fill="#FF8B7B"/>
<path opacity="0.2" d="M289.479 75.0785L278.884 101.322C279.087 97.7302 279.291 93.1927 279.482 88.2601L289.479 75.0785Z" fill="black"/>
<path d="M319.17 10.1765C317.002 9.62214 314.742 9.51994 312.532 9.87627C310.322 10.2326 308.209 11.0398 306.324 12.2477C303.858 13.864 301.799 16.1746 302.17 19.2755C303.184 25.7326 304.559 32.1279 306.288 38.4312L329.658 24.1722C329.658 24.1722 333.142 19.91 327.719 14.2351C325.971 12.4512 322.415 10.9786 319.17 10.1765Z" fill="#263238"/>
<path d="M316.992 55.2643C316.654 53.7684 316.573 52.2259 316.752 50.7028L317.889 46.5245V46.4407L311.101 39.0178L306.432 33.8817C306.695 39.2812 305.055 45.854 303.104 51.481C303.451 53.9833 315.22 60.6878 316.992 55.2643Z" fill="#FF8B7B"/>
<g opacity="0.2">
<path d="M317.889 46.5245L316.752 50.7028C314.178 49.5056 311.496 46.9435 310.898 44.1899C310.479 42.2025 311.389 40.3587 312.191 40.263L317.889 46.5245Z" fill="black"/>
</g>
<path d="M328.401 37.8445C328.15 38.7544 327.862 39.6404 327.563 40.5263C324.905 48.3084 315.28 48.907 309.329 43.1483C308.794 42.6221 308.298 42.0579 307.845 41.4602C304.073 36.4198 305.055 32.5767 305.702 23.8489C305.839 21.8237 306.489 19.8667 307.59 18.1617C308.691 16.4567 310.208 15.0597 311.998 14.102C313.788 13.1444 315.791 12.6574 317.821 12.687C319.851 12.7165 321.839 13.2616 323.6 14.271C330.856 18.4254 330.915 28.7575 328.401 37.8445Z" fill="#FF8B7B"/>
<path d="M312.227 18.2099C312.227 18.2099 320.679 24.5433 330.496 21.658C335.477 20.1973 334.639 9.98493 330.724 8.0095C327.527 6.39323 324.929 10.3202 324.929 10.3202C321.726 8.56756 318.083 7.78156 314.441 8.05739C307.857 8.34472 305.127 12.1399 305.127 12.1399C304.136 12.1148 303.166 12.4217 302.369 13.0117C301.573 13.6018 300.997 14.4413 300.733 15.3964C299.847 18.4015 303.128 24.1362 303.128 24.1362L312.227 18.2099Z" fill="#263238"/>
<path d="M319.661 28.4582C319.566 29.1407 319.853 29.7393 320.296 29.7991C320.739 29.859 321.182 29.3562 321.278 28.6737C321.373 27.9913 321.086 27.3927 320.631 27.3328C320.176 27.273 319.757 27.7758 319.661 28.4582Z" fill="#263238"/>
<path d="M322.882 39.3411H323.121C323.189 39.3321 323.251 39.2971 323.293 39.2435C323.336 39.1899 323.356 39.1218 323.349 39.0538C323.346 39.0195 323.336 38.9863 323.32 38.956C323.304 38.9258 323.281 38.8992 323.254 38.8779C323.227 38.8566 323.196 38.841 323.163 38.8321C323.13 38.8232 323.095 38.8213 323.062 38.8263C322.555 38.8704 322.045 38.8114 321.562 38.6528C321.079 38.4942 320.634 38.2394 320.252 37.9037C319.87 37.5679 319.561 37.1583 319.342 36.6996C319.123 36.2408 319 35.7424 318.979 35.2346C318.976 35.2004 318.966 35.1671 318.95 35.1369C318.934 35.1066 318.911 35.08 318.885 35.0587C318.858 35.0374 318.827 35.0218 318.793 35.0129C318.76 35.0041 318.726 35.0021 318.692 35.0071C318.624 35.0161 318.562 35.0511 318.52 35.1047C318.477 35.1584 318.457 35.2264 318.464 35.2944C318.526 36.4123 319.023 37.4616 319.849 38.2178C320.674 38.974 321.763 39.3772 322.882 39.3411Z" fill="#263238"/>
<path d="M305.57 24.639C305.57 24.639 308.204 24.7827 308.3 27.0335C308.395 29.2843 308.168 29.5836 308.168 29.5836L311.365 29.8111C311.365 29.8111 309.569 23.0707 311.831 23.1904C314.094 23.3101 310.79 18.3416 313.915 17.4556C317.255 16.5098 325.887 16.1147 329.251 21.4065C328.617 18.2056 326.833 15.3478 324.235 13.3731C320.092 10.5476 311.736 9.91307 308.336 14.0076C304.935 18.1021 305.57 24.639 305.57 24.639Z" fill="#263238"/>
<path d="M301.176 29.0928C301.509 31.2734 302.687 33.235 304.457 34.5522C306.851 36.2642 309.006 34.3965 309.245 31.6309C309.413 29.1526 308.395 25.2736 305.654 24.651C305.045 24.5274 304.415 24.5575 303.821 24.7386C303.227 24.9197 302.687 25.2461 302.251 25.6883C301.815 26.1304 301.496 26.6744 301.323 27.2709C301.15 27.8675 301.128 28.4978 301.26 29.1047" fill="#FF8B7B"/>
<path d="M326.689 29.2723C326.593 29.9548 326.881 30.5534 327.324 30.6133C327.767 30.6731 328.21 30.1703 328.305 29.4879C328.401 28.8054 328.102 28.2068 327.659 28.147C327.216 28.0871 326.773 28.5899 326.689 29.2723Z" fill="#263238"/>
<path d="M329.239 27.6082C329.181 27.5949 329.128 27.5671 329.084 27.5272C329.04 27.4874 329.007 27.437 328.988 27.3807C328.939 27.1293 328.835 26.8918 328.684 26.6849C328.533 26.478 328.338 26.3068 328.114 26.1835C327.664 25.9887 327.159 25.959 326.689 26.0997C326.646 26.1148 326.6 26.1212 326.554 26.1185C326.509 26.1158 326.464 26.1041 326.423 26.0841C326.382 26.0641 326.345 26.0361 326.315 26.0018C326.284 25.9675 326.261 25.9275 326.246 25.8842C326.219 25.7968 326.226 25.7023 326.266 25.6199C326.306 25.5376 326.376 25.4737 326.462 25.4412C327.109 25.2403 327.807 25.2828 328.425 25.5609C328.719 25.7232 328.977 25.9439 329.183 26.2095C329.389 26.4751 329.539 26.78 329.622 27.1054C329.637 27.1486 329.643 27.1943 329.639 27.2398C329.636 27.2853 329.623 27.3295 329.601 27.3699C329.58 27.4102 329.551 27.4458 329.515 27.4744C329.48 27.5031 329.439 27.5241 329.395 27.5364C329.351 27.5744 329.297 27.5993 329.239 27.6082Z" fill="#263238"/>
<path d="M317.854 26.5187C317.806 26.5295 317.757 26.5295 317.71 26.5187C317.667 26.5018 317.629 26.4764 317.596 26.444C317.564 26.4115 317.538 26.3728 317.522 26.3301C317.505 26.2875 317.497 26.2419 317.498 26.1961C317.5 26.1502 317.511 26.1052 317.53 26.0638C317.822 25.4539 318.323 24.9694 318.943 24.6989C319.265 24.5918 319.604 24.5514 319.942 24.5803C320.28 24.6091 320.608 24.7065 320.907 24.8665C320.949 24.8858 320.986 24.9133 321.017 24.9473C321.049 24.9814 321.073 25.0213 321.088 25.0648C321.104 25.1083 321.111 25.1544 321.108 25.2006C321.106 25.2467 321.094 25.2919 321.074 25.3335C321.054 25.3744 321.026 25.4109 320.991 25.4409C320.956 25.471 320.916 25.4938 320.873 25.5083C320.83 25.5228 320.784 25.5285 320.738 25.5252C320.693 25.5219 320.648 25.5097 320.607 25.4891C320.393 25.373 320.157 25.3015 319.914 25.2789C319.672 25.2562 319.427 25.2829 319.194 25.3574C318.741 25.5512 318.375 25.9049 318.165 26.3511C318.132 26.4035 318.086 26.4465 318.031 26.4759C317.977 26.5052 317.915 26.52 317.854 26.5187Z" fill="#263238"/>
<path d="M323.564 29.3801C324.392 31.2704 325.104 33.2096 325.695 35.1867C325.803 36.0008 323.241 35.9769 323.241 35.9769L323.564 29.3801Z" fill="#FF5652"/>
<path d="M278.656 56.1024C274.621 63.1182 270.826 70.2776 267.127 77.473C265.259 81.0647 263.451 84.6564 261.62 88.2481L258.926 93.6357L257.585 96.2696L256.914 97.5506L256.603 98.1492C256.523 98.3011 256.451 98.4569 256.388 98.6161L256.208 99.0471L256.076 99.3824L255.861 100.017L255.693 100.58C255.286 101.992 255.071 103.106 254.855 104.231C254.64 105.357 254.472 106.41 254.304 107.476C253.981 109.595 253.706 111.654 253.478 113.725C253.011 117.856 252.604 121.938 252.281 126.033C251.659 134.21 251.216 142.351 251.084 150.564C251.07 151.689 251.468 152.78 252.204 153.631C252.94 154.481 253.963 155.033 255.078 155.18C256.193 155.328 257.324 155.061 258.256 154.431C259.188 153.801 259.856 152.851 260.135 151.761C262.086 143.896 263.858 135.97 265.642 128.116C266.564 124.201 267.426 120.274 268.36 116.419C268.839 114.491 269.294 112.576 269.785 110.732C270.024 109.798 270.276 108.888 270.539 108.038C270.755 107.283 271.011 106.54 271.305 105.812C271.324 105.758 271.348 105.706 271.377 105.656C271.377 105.656 271.377 105.572 271.377 105.584V105.668V105.788C271.338 105.878 271.294 105.966 271.245 106.051L271.365 105.859L271.604 105.488L272.071 104.758L273.724 102.088L276.92 96.8562C279.003 93.3483 281.087 89.8524 283.098 86.3325C287.157 79.2928 291.095 72.2052 294.783 64.9619C295.712 62.8499 295.817 60.4665 295.076 58.2812C294.335 56.096 292.803 54.2674 290.781 53.1558C288.759 52.0442 286.394 51.7301 284.152 52.2755C281.91 52.8209 279.954 54.1862 278.668 56.1024H278.656Z" fill="#E3B250"/>
<path d="M240.883 173.431V165.925C240.883 165.801 240.933 165.682 241.02 165.594C241.108 165.507 241.227 165.458 241.35 165.458H245.433V164.26H241.362C240.918 164.26 240.491 164.437 240.177 164.751C239.863 165.066 239.686 165.492 239.686 165.937V173.431H240.883Z" fill="#263238"/>
<path d="M269.03 165.865V173.431H270.228V165.925C270.228 165.48 270.051 165.054 269.737 164.739C269.422 164.425 268.996 164.248 268.551 164.248H264.481V165.446H268.551C268.669 165.445 268.782 165.487 268.871 165.564C268.959 165.641 269.016 165.748 269.03 165.865Z" fill="#263238"/>
<path d="M286.199 176.544V214.377C286.199 215.221 285.863 216.031 285.266 216.629C284.669 217.226 283.859 217.561 283.014 217.561H228.408C227.565 217.558 226.756 217.222 226.16 216.625C225.563 216.028 225.227 215.22 225.224 214.377V176.544C225.227 175.702 225.564 174.895 226.161 174.3C226.757 173.705 227.566 173.371 228.408 173.371H283.014C283.432 173.37 283.846 173.451 284.232 173.609C284.618 173.768 284.969 174.002 285.265 174.296C285.561 174.591 285.796 174.941 285.956 175.327C286.116 175.713 286.199 176.126 286.199 176.544Z" fill="#263238"/>
<g opacity="0.5">
<path d="M286.199 176.544V214.377C286.199 215.221 285.863 216.031 285.266 216.629C284.669 217.226 283.859 217.561 283.014 217.561H228.408C227.565 217.558 226.756 217.222 226.16 216.625C225.563 216.028 225.227 215.22 225.224 214.377V176.544C225.227 175.702 225.564 174.895 226.161 174.3C226.757 173.705 227.566 173.371 228.408 173.371H283.014C283.432 173.37 283.846 173.451 284.232 173.609C284.618 173.768 284.969 174.002 285.265 174.296C285.561 174.591 285.796 174.941 285.956 175.327C286.116 175.713 286.199 176.126 286.199 176.544Z" fill="white"/>
</g>
<path d="M278.189 173.371H275.771V217.561H278.189V173.371Z" fill="#263238"/>
<path d="M235.663 173.371H233.245V217.561H235.663V173.371Z" fill="#263238"/>
<path d="M259.369 153.342C259.369 153.342 263.272 162.153 262.841 164.117C262.41 166.08 259.764 162.429 259.764 162.429L259.369 153.342Z" fill="#FF8B7B"/>
<path d="M265.738 162.776H243.745V166.811H265.738V162.776Z" fill="#263238"/>
<path opacity="0.3" d="M265.738 162.776H243.745V166.811H265.738V162.776Z" fill="white"/>
<path d="M251.347 152.001L248.306 160.98C247.696 163.542 255.981 167.289 259.177 165.075C261.703 163.339 259.524 152.923 259.524 152.923C258.338 152.118 256.974 151.614 255.549 151.453C254.125 151.293 252.683 151.481 251.347 152.001Z" fill="#FF8B7B"/>
<path d="M248.306 160.98C247.672 163.841 248.043 169.444 252.616 170.031C253.614 170.192 254.63 170.213 255.633 170.091C256.534 170.469 257.531 170.553 258.483 170.33C260.781 169.6 259.931 163.817 259.931 163.817L248.306 160.98Z" fill="#FF8B7B"/>
<path d="M304.516 47.1111C304.516 47.1111 298.003 45.7223 296.591 51.1338V69.0085L300.338 73.6897L297.381 76.6349L297.297 99.6098L304.217 102.004C304.361 95.6111 305.414 84.1416 303.81 67.1768C303.214 60.4848 303.452 53.7447 304.516 47.1111Z" fill="#E3B250"/>
<path opacity="0.3" d="M304.516 47.1111C304.516 47.1111 298.003 45.7223 296.591 51.1338V69.0085L300.338 73.6897L297.381 76.6349L297.297 99.6098L304.217 102.004C304.361 95.6111 305.414 84.1416 303.81 67.1768C303.214 60.4848 303.452 53.7447 304.516 47.1111Z" fill="black"/>
<path d="M316.752 50.7028C316.752 50.7028 319.805 53.8037 321.326 60.8913C322.846 67.9789 325.923 98.9753 325.827 102.914L332.675 97.7781L329.898 73.1629L325.839 70.6488L329.251 66.1711C329.251 66.1711 326.114 54.8692 324.091 51.9839C322.068 49.0985 317.387 48.3922 317.387 48.3922L316.752 50.7028Z" fill="#E3B250"/>
<path opacity="0.3" d="M316.752 50.7028C316.752 50.7028 319.805 53.8037 321.326 60.8913C322.846 67.9789 325.923 98.9753 325.827 102.914L332.675 97.7781L329.898 73.1629L325.839 70.6488L329.251 66.1711C329.251 66.1711 326.114 54.8692 324.091 51.9839C322.068 49.0985 317.387 48.3922 317.387 48.3922L316.752 50.7028Z" fill="black"/>
</svg>
