<svg width="74" height="74" viewBox="0 0 74 74" fill="none" xmlns="http://www.w3.org/2000/svg">
<path d="M52.4167 6.16669H21.5833C13.0689 6.16669 6.16667 13.069 6.16667 21.5834V52.4167C6.16667 60.9311 13.0689 67.8334 21.5833 67.8334H52.4167C60.9311 67.8334 67.8333 60.9311 67.8333 52.4167V21.5834C67.8333 13.069 60.9311 6.16669 52.4167 6.16669Z" stroke="#1F3992" stroke-width="7.33333" stroke-linecap="round" stroke-linejoin="round"/>
<path d="M49.3333 35.0575C49.7139 37.6236 49.2755 40.2443 48.0808 42.547C46.886 44.8496 44.9955 46.7169 42.6783 47.8832C40.3612 49.0495 37.7352 49.4554 35.174 49.0433C32.6128 48.6312 30.2468 47.4219 28.4124 45.5876C26.5781 43.7533 25.3688 41.3872 24.9567 38.826C24.5446 36.2648 24.9505 33.6389 26.1168 31.3217C27.2831 29.0045 29.1504 27.114 31.453 25.9193C33.7557 24.7245 36.3764 24.2862 38.9425 24.6667C41.56 25.0548 43.9833 26.2745 45.8544 28.1456C47.7255 30.0167 48.9452 32.44 49.3333 35.0575Z" stroke="#1F3992" stroke-width="7.33333" stroke-linecap="round" stroke-linejoin="round"/>
<path d="M53.9583 20.0417H53.9892" stroke="#1F3992" stroke-width="7.33333" stroke-linecap="round" stroke-linejoin="round"/>
</svg>
