<svg width="72" height="72" viewBox="0 0 72 72" fill="none" xmlns="http://www.w3.org/2000/svg">
<path d="M60 18C60 11.496 49.011 6 36 6C22.989 6 12 11.496 12 18V24C12 30.504 22.989 36 36 36C49.011 36 60 30.504 60 24V18ZM36 57C22.989 57 12 51.504 12 45V54C12 60.504 22.989 66 36 66C49.011 66 60 60.504 60 54V45C60 51.504 49.011 57 36 57Z" fill="#1F3892"/>
<path d="M60 30C60 36.504 49.011 42 36 42C22.989 42 12 36.504 12 30V39C12 45.504 22.989 51 36 51C49.011 51 60 45.504 60 39V30Z" fill="#1F3892"/>
</svg>
